<?xml version="1.0" encoding="utf-8"?>
<!-- Generator: Adobe Illustrator 25.4.1, SVG Export Plug-In . SVG Version: 6.00 Build 0)  -->
<svg version="1.1" id="Layer_1" xmlns="http://www.w3.org/2000/svg" xmlns:xlink="http://www.w3.org/1999/xlink" x="0px" y="0px"
	 viewBox="0 0 277.8 366" style="enable-background:new 0 0 277.8 366;" xml:space="preserve">
<style type="text/css">
	.st0{fill:#FFFFFF;}
	.st1{fill:#5D8BBE;}
	.st2{fill:#234061;}
	.st3{fill:#357FB9;}
	.st4{opacity:0.61;}
	.st5{fill:url(#SVGID_1_);}
	.st6{fill:url(#SVGID_00000026146995994590007660000016413668313349879683_);}
	.st7{fill:#2E4060;}
	.st8{fill:#235A92;}
	.st9{fill:url(#SVGID_00000103985714304190609180000006288625804854216634_);}
	.st10{fill:#009CCF;}
	.st11{fill:#E3EFF8;}
	.st12{fill:url(#SVGID_00000044900371972502837200000015511827055339428283_);}
	.st13{fill:url(#SVGID_00000033344889816594102620000017055399843920114338_);}
	.st14{fill:#3C5F96;}
	.st15{fill:#1C6CB0;}
	.st16{font-family:'HYwulB';}
	.st17{font-size:13px;}
	.st18{fill:#716764;}
	.st19{fill:#EA5C33;}
	.st20{fill:#DAEAF4;}
	.st21{fill:#FFFFFF;stroke:#1D63A1;stroke-width:0.5;stroke-miterlimit:10;}
	.st22{fill:#565C65;}
	.st23{font-family:'HaanYGodic24';}
	.st24{font-size:8px;}
	.st25{fill:#EEEEEE;}
	.st26{fill:#226BA2;}
	.st27{font-size:7px;}
	.st28{fill:#444E52;}
	.st29{font-family:'AppleSDGothicNeo-Medium-KSCpc-EUC-H';}
	.st30{fill:#0B699A;}
	.st31{font-family:'KozGoPr6N-Regular-83pv-RKSJ-H';}
</style>
<rect class="st0" width="277.8" height="366"/>
<rect x="1.3" y="0.9" class="st14" width="275.2" height="364.3"/>
<rect x="3.7" y="3.5" class="st0" width="270.3" height="359"/>
<text transform="matrix(1 0 0 1 10.2725 19.0516)"><tspan x="0" y="0" class="st15 st16 st17">안전보건관리체계</tspan><tspan x="98.5" y="0" class="st16 st17"> </tspan><tspan x="102.1" y="0" class="st18 st16 st17">구축을 위한</tspan><tspan x="167.3" y="0" class="st16 st17"> </tspan><tspan x="171" y="0" class="st19 st16 st17">7가지 핵심요소</tspan></text>
<g>
	<polygon class="st20" points="18.2,35.3 18.2,69.1 83.6,69.1 83.6,30.9 25.3,30.9 	"/>
	<g>
		<ellipse class="st21" cx="18.2" cy="50" rx="6.9" ry="6"/>
		<text transform="matrix(1 0 0 1 16.0894 52.9068)" class="st22 st23 st24">1</text>
	</g>
	<rect x="86.4" y="30.9" class="st25" width="179.8" height="38.4"/>
	<text transform="matrix(1 0 0 1 43.305 48.2425)"><tspan x="0" y="0" class="st26 st23 st27">경영자</tspan><tspan x="0" y="9" class="st26 st23 st27">리더십</tspan></text>
	<text transform="matrix(1 0 0 1 98.0819 42.0835)"><tspan x="0" y="0" class="st28 st29 st27">안전보건에 대한 의지를 밝히고, 목표를 정합니다.</tspan><tspan x="0" y="11" class="st28 st29 st27">안전보건에 필요한 자원(인력・시설・장비)을 배정합니다.</tspan><tspan x="0" y="22" class="st28 st29 st27">구성원의 권한과 책임을 정하고, 참여를 독려합니다.</tspan></text>
	<g>
		<rect x="91.9" y="38.6" class="st30" width="2.2" height="0.5"/>
		<rect x="91.9" y="49.6" class="st30" width="2.2" height="0.5"/>
		<rect x="91.9" y="60.7" class="st30" width="2.2" height="0.5"/>
	</g>
</g>
<g>
	<polygon class="st20" points="18.2,78.1 18.2,111.9 83.6,111.9 83.6,73.8 25.3,73.8 	"/>
	<g>
		<ellipse class="st21" cx="18.2" cy="92.9" rx="6.9" ry="6"/>
		<text transform="matrix(1 0 0 1 16.0894 95.7704)" class="st22 st23 st24">2</text>
	</g>
	<rect x="86.4" y="73.8" class="st25" width="179.8" height="38.4"/>
	<text transform="matrix(1 0 0 1 40.4788 92.1061)"><tspan x="0" y="0" class="st26 st23 st27">근로자의</tspan><tspan x="6.3" y="9" class="st26 st23 st27">참여</tspan></text>
	<text transform="matrix(1 0 0 1 98.0819 84.9471)"><tspan x="0" y="0" class="st28 st29 st27">안전보건관리 전반에 관한 정보를 공개합니다.</tspan><tspan x="0" y="11" class="st28 st29 st27">모든 구성원이 참여할 수 있는 절차를 마련합니다.</tspan><tspan x="0" y="22" class="st28 st29 st27">자유롭게 의견을 제시할 수 있는 문화를 조성합니다.</tspan></text>
	<g>
		<rect x="91.9" y="81.5" class="st30" width="2.2" height="0.5"/>
		<rect x="91.9" y="92.5" class="st30" width="2.2" height="0.5"/>
		<rect x="91.9" y="103.6" class="st30" width="2.2" height="0.5"/>
	</g>
</g>
<g>
	<polygon class="st20" points="18.2,241.5 18.2,275.3 83.6,275.3 83.6,237.1 25.3,237.1 	"/>
	<g>
		<ellipse class="st21" cx="18.2" cy="256.2" rx="6.9" ry="6"/>
		<text transform="matrix(1 0 0 1 16.0894 259.097)" class="st22 st23 st24">5</text>
	</g>
	<rect x="86.4" y="237.1" class="st25" width="179.8" height="38.4"/>
	<text transform="matrix(1 0 0 1 35.179 255.4327)"><tspan x="0" y="0" class="st26 st23 st27">비상조치계획</tspan><tspan x="12.6" y="9" class="st26 st23 st27">수립</tspan></text>
	<text transform="matrix(1 0 0 1 98.0819 248.2736)"><tspan x="0" y="0" class="st28 st29 st27">위험요인을 바탕으로 ‘시나리오’를 작성합니다.</tspan><tspan x="0" y="11" class="st28 st29 st27">‘재해 발생 시나리오’별 조치계획을 수립합니다.</tspan><tspan x="0" y="22" class="st28 st29 st27">조치계획에 따라 주기적으로 훈련합니다.</tspan></text>
	<g>
		<rect x="91.9" y="244.8" class="st30" width="2.2" height="0.5"/>
		<rect x="91.9" y="255.8" class="st30" width="2.2" height="0.5"/>
		<rect x="91.9" y="266.9" class="st30" width="2.2" height="0.5"/>
	</g>
</g>
<g>
	<polygon class="st20" points="18.2,284.3 18.2,314.6 83.6,314.6 83.6,280 25.3,280 	"/>
	<g>
		<ellipse class="st21" cx="18.2" cy="298" rx="6.9" ry="6"/>
		<text transform="matrix(1 0 0 1 16.0894 300.9606)" class="st22 st23 st24">6</text>
	</g>
	<rect x="86.4" y="280" class="st25" width="179.8" height="34.6"/>
	<text transform="matrix(1 0 0 1 33.7676 291.2899)"><tspan x="0" y="0" class="st26 st23 st27">도급</tspan><tspan x="12.6" y="0" class="st26 st31 st27">・</tspan><tspan x="19.6" y="0" class="st26 st23 st27">용역</tspan><tspan x="32.2" y="0" class="st26 st31 st27">・</tspan><tspan x="8.9" y="9" class="st26 st23 st27">위탁 시</tspan><tspan x="-0.5" y="18" class="st26 st23 st27">안전보건 확보</tspan></text>
	<text transform="matrix(1 0 0 1 98.0819 291.1372)" class="st28 st29 st27">안전보건관리 전반에 관한 정보를 공개합니다.</text>
	<text transform="matrix(1 0 0 1 98.0819 301.9606)"><tspan x="0" y="0" class="st28 st29 st27">안전보건관리체계 구축・운영 시 사업장 내 모든 구성원이</tspan><tspan x="0" y="8" class="st28 st29 st27">보호받을 수 있도록 합니다.</tspan></text>
	<g>
		<rect x="91.9" y="287.6" class="st30" width="2.2" height="0.5"/>
		<rect x="91.9" y="299.2" class="st30" width="2.2" height="0.5"/>
	</g>
</g>
<g>
	<polygon class="st20" points="18.2,323.4 18.2,357.2 83.6,357.2 83.6,319 25.3,319 	"/>
	<g>
		<ellipse class="st21" cx="18.2" cy="338.1" rx="6.9" ry="6"/>
		<text transform="matrix(1 0 0 1 16.0894 341.01)" class="st22 st23 st24">7</text>
	</g>
	<rect x="86.4" y="319" class="st25" width="179.8" height="38.4"/>
	<text transform="matrix(1 0 0 1 42.4041 336.3457)"><tspan x="0" y="0" class="st26 st23 st27">평가 및</tspan><tspan x="4.4" y="9" class="st26 st23 st27">개선</tspan></text>
	<text transform="matrix(1 0 0 1 98.0819 330.1866)"><tspan x="0" y="0" class="st28 st29 st27">안전보건 목표를 설정하고 관리합니다.</tspan><tspan x="0" y="11" class="st28 st29 st27">‘안전보건관리체계’가 제대로 운영되는지 점검합니다.</tspan><tspan x="0" y="22" class="st28 st29 st27">발굴된 문제접을 주기적으로 검토하고 개선합니다.</tspan></text>
	<g>
		<rect x="91.9" y="326.7" class="st30" width="2.2" height="0.5"/>
		<rect x="91.9" y="337.8" class="st30" width="2.2" height="0.5"/>
		<rect x="91.9" y="348.8" class="st30" width="2.2" height="0.5"/>
	</g>
</g>
<g>
	<polygon class="st20" points="18.2,121 18.2,178.3 83.6,178.3 83.6,116.6 25.3,116.6 	"/>
	<g>
		<ellipse class="st21" cx="18.2" cy="149.3" rx="6.9" ry="6"/>
		<text transform="matrix(1 0 0 1 16.0894 152.2253)" class="st22 st23 st24">3</text>
	</g>
	<rect x="86.4" y="116.6" class="st25" width="179.8" height="61.6"/>
	<text transform="matrix(1 0 0 1 39.4788 147.1947)"><tspan x="0" y="0" class="st26 st23 st27">위험요인</tspan><tspan x="6.3" y="9" class="st26 st23 st27">파악</tspan></text>
	<text transform="matrix(1 0 0 1 98.0819 127.8106)"><tspan x="0" y="0" class="st28 st29 st27">위험요인에 따른 정보를 수집하고 정리합니다.</tspan><tspan x="0" y="11" class="st28 st29 st27">산업재해 및 아차사고를 조사합니다.</tspan><tspan x="0" y="22" class="st28 st29 st27">위험기계・기구・설비 등을 파악합니다.</tspan><tspan x="0" y="33" class="st28 st29 st27">유해인자를 파악합니다.</tspan><tspan x="0" y="44" class="st28 st29 st27">위험장소 및 작업형태별 위험요인을 파악합니다.</tspan></text>
	<g>
		<rect x="91.9" y="124.3" class="st30" width="2.2" height="0.5"/>
		<rect x="91.9" y="135.4" class="st30" width="2.2" height="0.5"/>
		<rect x="91.9" y="146.4" class="st30" width="2.2" height="0.5"/>
		<rect x="91.9" y="157.4" class="st30" width="2.2" height="0.5"/>
		<rect x="91.9" y="168.5" class="st30" width="2.2" height="0.5"/>
	</g>
</g>
<g>
	<polygon class="st20" points="18.2,187.1 18.7,232.7 84.1,232.7 83.6,182.7 25.3,182.7 	"/>
	<g>
		<ellipse class="st21" cx="18.2" cy="209.4" rx="6.9" ry="6"/>
		<text transform="matrix(1 0 0 1 16.0894 212.321)" class="st22 st23 st24">4</text>
	</g>
	<polygon class="st25" points="266.8,232.7 87,232.7 86.4,182.7 266.3,182.7 	"/>
	<text transform="matrix(1 0 0 1 40.4788 201.2491)"><tspan x="0" y="0" class="st26 st23 st27">위험요인</tspan><tspan x="-3.5" y="9" class="st26 st23 st27">제거</tspan><tspan x="9.1" y="9" class="st26 st31 st27">・</tspan><tspan x="16.1" y="9" class="st26 st23 st27">대체</tspan><tspan x="1.9" y="18" class="st26 st23 st27">및 통제</tspan></text>
	<text transform="matrix(1 0 0 1 98.0819 193.8771)"><tspan x="0" y="0" class="st28 st29 st27">위험요인에 따른 정보를 수집하고 정리합니다.</tspan><tspan x="0" y="11" class="st28 st29 st27">산업재해 및 아차사고를 조사합니다.</tspan><tspan x="0" y="22" class="st28 st29 st27">위험기계・기구・설비 등을 파악합니다.</tspan><tspan x="0" y="33" class="st28 st29 st27">유해인자를 파악합니다.</tspan></text>
	<g>
		<rect x="91.9" y="190.4" class="st30" width="2.2" height="0.5"/>
		<rect x="91.9" y="201.4" class="st30" width="2.2" height="0.5"/>
		<rect x="91.9" y="212.5" class="st30" width="2.2" height="0.5"/>
		<rect x="91.9" y="223.5" class="st30" width="2.2" height="0.5"/>
	</g>
</g>
</svg>
