<?xml version="1.0" encoding="utf-8"?>
<!-- Generator: Adobe Illustrator 25.4.1, SVG Export Plug-In . SVG Version: 6.00 Build 0)  -->
<svg version="1.1" id="Layer_1" xmlns="http://www.w3.org/2000/svg" xmlns:xlink="http://www.w3.org/1999/xlink" x="0px" y="0px"
	 viewBox="0 0 249.6 310.2" style="enable-background:new 0 0 249.6 310.2;" xml:space="preserve">
<style type="text/css">
	.st0{fill:#FFFFFF;}
	.st1{fill:#5D8BBE;}
	.st2{fill:#234061;}
	.st3{fill:#357FB9;}
	.st4{opacity:0.61;}
	.st5{fill:url(#SVGID_1_);}
	.st6{fill:url(#SVGID_00000033354259630504965200000014096746044640514194_);}
	.st7{fill:#FAF8D8;}
	.st8{font-family:'BebasNeueRegular';}
	.st9{font-size:68.651px;}
	.st10{fill:#2E4060;}
	.st11{font-family:'HYwulB';}
	.st12{font-size:16px;}
	.st13{letter-spacing:-1;}
	.st14{fill:#235A92;}
	.st15{fill:#89888A;}
	.st16{font-family:'AppleSDGothicNeo-SemiBold-KSCpc-EUC-H';}
	.st17{font-size:7px;}
	.st18{fill:#009EC9;}
	.st19{fill:url(#SVGID_00000110454970487615053810000014815532501058742429_);}
	.st20{fill:#009CCF;}
	.st21{fill:#E3EFF8;}
	.st22{font-family:'HaanYGodic25';}
	.st23{font-family:'HaanYGodic24';}
	.st24{fill:#444E52;}
	.st25{font-family:'AppleSDGothicNeo-Medium-KSCpc-EUC-H';}
	.st26{fill:url(#SVGID_00000082344442129689715250000004520284560409676985_);}
	.st27{fill:url(#SVGID_00000080187187280488575100000013831980368278947757_);}
	.st28{fill:#3C5F96;}
	.st29{fill:#DAEAF4;}
	.st30{fill:#FFFFFF;stroke:#1D63A1;stroke-width:0.5;stroke-miterlimit:10;}
	.st31{fill:#EEEEEE;}
	.st32{fill:#0B699A;}
</style>
<rect x="3.1" y="3.4" class="st3" width="243.4" height="47.2"/>
<rect x="3.1" y="53.7" class="st0" width="243.4" height="116.5"/>
<rect x="3.1" y="173.2" class="st0" width="243.4" height="65.3"/>
<rect x="3.1" y="241.5" class="st0" width="243.4" height="65.3"/>
<g class="st4">
	
		<linearGradient id="SVGID_1_" gradientUnits="userSpaceOnUse" x1="68.4121" y1="4.0066" x2="54.3172" y2="50.1089" gradientTransform="matrix(1 0 -0.1473 1 -14.2482 0)">
		<stop  offset="0" style="stop-color:#3277B4"/>
		<stop  offset="1" style="stop-color:#144074"/>
	</linearGradient>
	<path class="st5" d="M34,14.6c0.5-3.7,1.9-6.6,4-8.8c2.1-2.2,5-3.3,8.8-3.3s6.3,1.1,7.8,3.3c1.5,2.2,2,5.1,1.4,8.8l-3.7,24.8
		c-0.5,3.7-1.9,6.7-4.1,8.9c-2.2,2.2-5.1,3.3-8.8,3.3s-6.3-1.1-7.8-3.3c-1.5-2.2-2-5.1-1.4-8.9L34,14.6z M35.5,39.8
		c-0.3,2.2-0.1,3.9,0.7,5.1c0.8,1.2,2.1,1.8,4,1.8c2,0,3.5-0.6,4.6-1.8c1.1-1.2,1.8-2.9,2.1-5.1l3.7-25.4c0.3-2.2,0.1-3.9-0.6-5.1
		C49.3,8,48,7.4,46,7.4c-1.9,0-3.4,0.6-4.6,1.9c-1.1,1.2-1.8,3-2.2,5.1L35.5,39.8z"/>
	
		<linearGradient id="SVGID_00000165197256852684514610000017712032777402845097_" gradientUnits="userSpaceOnUse" x1="96.3237" y1="4.3117" x2="81.6355" y2="52.3545" gradientTransform="matrix(1 0 -0.1473 1 -14.2482 0)">
		<stop  offset="0" style="stop-color:#3277B4"/>
		<stop  offset="1" style="stop-color:#144074"/>
	</linearGradient>
	<path style="fill:url(#SVGID_00000165197256852684514610000017712032777402845097_);" d="M73.6,2.5c3.8,0,6.3,1.1,7.8,3.3
		c1.4,2.2,1.9,5.1,1.3,8.9c-0.4,2.4-1.1,4.6-2.2,6.6c-1.1,1.9-2.4,3.8-3.8,5.4c-1.5,1.7-3,3.2-4.6,4.7c-1.6,1.5-3.1,2.9-4.6,4.4
		c-1.4,1.5-2.7,3-3.7,4.6c-1.1,1.6-1.7,3.3-2,5.1l-0.1,0.8h15.8l-0.7,4.9H55.7l0.6-4.1c0.4-2.6,1.1-4.8,2.2-6.8
		c1.1-2,2.4-3.8,3.8-5.4c1.5-1.6,3-3.2,4.6-4.6c1.6-1.4,3.1-2.9,4.6-4.4c1.4-1.5,2.7-3.1,3.7-4.9c1.1-1.7,1.8-3.7,2.1-6
		c0.4-2.5,0.2-4.3-0.5-5.6c-0.7-1.3-2-1.9-4-1.9c-2,0-3.5,0.6-4.6,1.9c-1.1,1.3-1.8,3-2.1,5.1l-0.6,4.3h-5l0.6-3.9
		c0.5-3.7,1.9-6.7,3.9-8.9C67,3.7,69.9,2.5,73.6,2.5z"/>
</g>
<text transform="matrix(1 0 0 1 25.3696 51.0135)" class="st7 st8 st9">02</text>
<path class="st10" d="M0,0v310.2h249.6V0H0z M246.5,306.8H3.1v-65.3h243.4V306.8z M246.5,238.5H3.1v-65.3h243.4V238.5z M246.5,170.2
	H3.1V53.7h243.4V170.2z M246.5,50.7H3.1V3.4h243.4V50.7z"/>
<text transform="matrix(1 0 0 1 84.2757 33.9503)" class="st0 st11 st12 st13">근로자의 참여</text>
<g>
	<g>
		<path class="st14" d="M7.1,57.4h1.5v7.8H7.1V57.4z M7.8,63.2l2.6-3.6H12l-4,5.2L7.8,63.2z M9.1,62.3l1.2-0.7l1.9,3.6h-1.7
			L9.1,62.3z"/>
		<path class="st14" d="M13.1,65c-0.4-0.2-0.7-0.5-0.9-0.9c-0.2-0.4-0.3-0.8-0.3-1.4v-0.6c0-0.6,0.1-1,0.3-1.4
			c0.2-0.4,0.5-0.7,0.8-0.9c0.4-0.2,0.8-0.3,1.3-0.3c0.5,0,0.9,0.1,1.3,0.4s0.6,0.6,0.8,1.1c0.2,0.5,0.3,1,0.3,1.7V63h-3.8v-1h2.5
			l0-0.1c0-0.3-0.1-0.6-0.3-0.7c-0.2-0.2-0.4-0.3-0.7-0.3c-0.4,0-0.6,0.1-0.8,0.3c-0.2,0.2-0.3,0.5-0.3,0.9v0.7
			c0,0.4,0.1,0.7,0.3,0.9c0.2,0.2,0.5,0.3,0.9,0.3c0.2,0,0.4,0,0.6-0.1c0.2-0.1,0.4-0.2,0.5-0.3l1,0.9c-0.3,0.3-0.6,0.5-1,0.6
			c-0.4,0.1-0.7,0.2-1.1,0.2C13.9,65.3,13.5,65.2,13.1,65z"/>
		<path class="st14" d="M16.5,59.6h1.4l1.9,4.8l-0.9,1.2L16.5,59.6z M21.7,59.6l-2.5,6.9c-0.1,0.3-0.2,0.5-0.3,0.6
			c-0.1,0.1-0.3,0.3-0.5,0.3c-0.2,0.1-0.5,0.1-0.7,0.1h-0.3v-1.4h0.3c0.2,0,0.3,0,0.4-0.1c0.1-0.1,0.2-0.2,0.2-0.3l2.1-6H21.7z"/>
		<path class="st14" d="M23.7,59.6h1.5v7.8h-1.5V59.6z M25.6,65c-0.2-0.2-0.4-0.4-0.5-0.7l0.1-1.3c0,0.2,0,0.3,0.1,0.5
			s0.2,0.2,0.3,0.3c0.1,0.1,0.3,0.1,0.4,0.1c0.3,0,0.5-0.1,0.6-0.3c0.2-0.2,0.2-0.4,0.2-0.8V62c0-0.3-0.1-0.6-0.2-0.8
			c-0.2-0.2-0.4-0.3-0.6-0.3c-0.2,0-0.3,0-0.4,0.1c-0.1,0.1-0.2,0.2-0.3,0.3s-0.1,0.3-0.1,0.5L25,60.6c0.2-0.3,0.3-0.6,0.6-0.8
			c0.2-0.2,0.5-0.3,0.8-0.3c0.4,0,0.7,0.1,1,0.3c0.3,0.2,0.5,0.5,0.6,0.8s0.2,0.8,0.2,1.3v0.9c0,0.5-0.1,0.9-0.2,1.3
			c-0.1,0.4-0.4,0.6-0.6,0.8c-0.3,0.2-0.6,0.3-1,0.3C26.1,65.3,25.8,65.2,25.6,65z"/>
		<path class="st14" d="M29.7,65c-0.4-0.2-0.6-0.5-0.8-0.8c-0.2-0.4-0.3-0.8-0.3-1.3V62c0-0.5,0.1-0.9,0.3-1.3
			c0.2-0.4,0.5-0.6,0.8-0.8c0.4-0.2,0.8-0.3,1.3-0.3s0.9,0.1,1.3,0.3c0.4,0.2,0.6,0.5,0.8,0.8c0.2,0.4,0.3,0.8,0.3,1.3v0.9
			c0,0.5-0.1,0.9-0.3,1.3c-0.2,0.4-0.5,0.6-0.8,0.8c-0.4,0.2-0.8,0.3-1.3,0.3S30.1,65.2,29.7,65z M31.7,63.6
			c0.2-0.2,0.2-0.4,0.2-0.7V62c0-0.3-0.1-0.6-0.2-0.7S31.3,61,31,61c-0.3,0-0.5,0.1-0.7,0.3c-0.2,0.2-0.2,0.4-0.2,0.7v0.9
			c0,0.3,0.1,0.6,0.2,0.7c0.2,0.2,0.4,0.3,0.7,0.3S31.6,63.8,31.7,63.6z"/>
		<path class="st14" d="M33.9,57.4h1.5v1.5h-1.5V57.4z M33.9,59.6h1.5v5.6h-1.5V59.6z"/>
		<path class="st14" d="M35.9,59.6h1.5v5.6h-1.5V59.6z M39.1,61.8c0-0.3-0.1-0.5-0.2-0.6C38.7,61,38.5,61,38.2,61
			c-0.3,0-0.5,0.1-0.6,0.2c-0.1,0.2-0.2,0.4-0.2,0.6l-0.1-1.2c0.2-0.4,0.4-0.6,0.6-0.8c0.2-0.2,0.5-0.3,0.9-0.3c0.6,0,1,0.2,1.4,0.6
			c0.3,0.4,0.5,1,0.5,1.7v3.4h-1.5V61.8z"/>
		<path class="st14" d="M40.7,59.6h2.7v1.3h-2.7V59.6z M41.6,64.9c-0.2-0.2-0.3-0.6-0.3-1.1V58h1.5v5.4c0,0.1,0,0.2,0.1,0.3
			c0.1,0.1,0.1,0.1,0.2,0.1h0.4v1.4h-0.7C42.2,65.2,41.9,65.1,41.6,64.9z"/>
	</g>
</g>
<text transform="matrix(1 0 0 1 7.1081 82.4183)"><tspan x="0" y="0" class="st15 st16 st17">성공적인 안전보건관리체계 구축・이행을 위해서는 잠재된 위험에 대해 가장 잘 알고</tspan><tspan x="0" y="11" class="st15 st16 st17">있는 </tspan><tspan x="14.2" y="11" class="st18 st16 st17">현장 작업자의 참여</tspan><tspan x="67.3" y="11" class="st15 st16 st17">가 반드시 필요합니다.</tspan></text>
<g>
	
		<linearGradient id="SVGID_00000044147056563628552760000017450142362330493321_" gradientUnits="userSpaceOnUse" x1="41.7758" y1="104.7217" x2="37.4327" y2="129.3525">
		<stop  offset="0" style="stop-color:#3277B4;stop-opacity:0"/>
		<stop  offset="0.691" style="stop-color:#144074;stop-opacity:0.7"/>
	</linearGradient>
	<path style="fill:url(#SVGID_00000044147056563628552760000017450142362330493321_);" d="M67.7,124.1H7.5l3.8-13
		c0.2-0.7,1-1.2,1.7-1.2h57.5c0.8,0,1.2,0.6,1,1.2L67.7,124.1z"/>
	<path class="st20" d="M67.8,124.1H7.5v-14.3c0-0.8,0.6-1.4,1.4-1.4h57.6c0.8,0,1.4,0.6,1.4,1.4V124.1z"/>
	<path class="st21" d="M236.1,166.3H7.1v-45h235.4v38.6C242.5,163.5,239.6,166.3,236.1,166.3z"/>
	<text transform="matrix(1 0 0 1 20.4984 116.9431)" class="st0 st22 st17">실행전략_1</text>
	<text transform="matrix(1 0 0 1 20.7782 135.0279)" class="st20 st23 st17">안전보건관리 전반에 관한 정보를 공개합니다</text>
	<text transform="matrix(1 0 0 1 30.0845 148.2999)" class="st24 st25 st17">안전보건관리와 관련된 모든 정보는 공개를 원칙으로 합니다.</text>
	<path class="st20" d="M24.2,143.3c0,0-0.6,2.7-3.1,2.7c0,0,2.5,0,3.1,2.3c0,0,0.5-2.3,2.8-2.5C27,145.8,24.4,145.4,24.2,143.3z"/>
	<text transform="matrix(1 0 0 1 30.0845 160.1028)" class="st24 st25 st17">안전보건 관련 참여 절차를 적극적으로 알립니다.</text>
	<path class="st20" d="M24.2,155.1c0,0-0.6,2.7-3.1,2.7c0,0,2.5,0,3.1,2.3c0,0,0.5-2.3,2.8-2.5C27,157.6,24.4,157.2,24.2,155.1z"/>
</g>
<g>
	
		<linearGradient id="SVGID_00000080202509560190227980000002472095462192671651_" gradientUnits="userSpaceOnUse" x1="41.7758" y1="173.1803" x2="37.4327" y2="197.8111">
		<stop  offset="0" style="stop-color:#3277B4;stop-opacity:0"/>
		<stop  offset="0.691" style="stop-color:#144074;stop-opacity:0.7"/>
	</linearGradient>
	<path style="fill:url(#SVGID_00000080202509560190227980000002472095462192671651_);" d="M67.7,192.5H7.5l3.8-13
		c0.2-0.7,1-1.2,1.7-1.2h57.5c0.8,0,1.2,0.6,1,1.2L67.7,192.5z"/>
	<path class="st20" d="M67.8,192.5H7.5v-14.3c0-0.8,0.6-1.4,1.4-1.4h57.6c0.8,0,1.4,0.6,1.4,1.4V192.5z"/>
	<path class="st21" d="M236.1,234.8H7.1v-45h235.4v38.6C242.5,231.9,239.6,234.8,236.1,234.8z"/>
	<text transform="matrix(1 0 0 1 20.4984 185.4017)" class="st0 st22 st17">실행전략_2</text>
	<text transform="matrix(1 0 0 1 20.7782 203.4865)" class="st20 st23 st17">모든 구성원이 참여할 수 있는 절차를 마련합니다</text>
	<text transform="matrix(1 0 0 1 30.0845 216.7585)" class="st24 st25 st17">산업안전보건위원회, TBM, 안전제안 활동 등 공식적인 절차를 마련합니다.</text>
	<path class="st20" d="M24.2,211.8c0,0-0.6,2.7-3.1,2.7c0,0,2.5,0,3.1,2.3c0,0,0.5-2.3,2.8-2.5C27,214.3,24.4,213.9,24.2,211.8z"/>
	<text transform="matrix(1 0 0 1 30.0845 228.5614)" class="st24 st25 st17">각 구성원이 개별적으로 제안할 수 있는 절차도 마련합니다.</text>
	<path class="st20" d="M24.2,223.6c0,0-0.6,2.7-3.1,2.7c0,0,2.5,0,3.1,2.3c0,0,0.5-2.3,2.8-2.5C27,226.1,24.4,225.7,24.2,223.6z"/>
</g>
<g>
	
		<linearGradient id="SVGID_00000020388454094685845220000002915766668426080642_" gradientUnits="userSpaceOnUse" x1="41.7758" y1="241.4816" x2="37.4327" y2="266.1125">
		<stop  offset="0" style="stop-color:#3277B4;stop-opacity:0"/>
		<stop  offset="0.691" style="stop-color:#144074;stop-opacity:0.7"/>
	</linearGradient>
	<path style="fill:url(#SVGID_00000020388454094685845220000002915766668426080642_);" d="M67.7,260.8H7.5l3.8-13
		c0.2-0.7,1-1.2,1.7-1.2h57.5c0.8,0,1.2,0.6,1,1.2L67.7,260.8z"/>
	<path class="st20" d="M67.8,260.8H7.5v-14.3c0-0.8,0.6-1.4,1.4-1.4h57.6c0.8,0,1.4,0.6,1.4,1.4V260.8z"/>
	<path class="st21" d="M236.1,303.1H7.1v-45h235.4v38.6C242.5,300.2,239.6,303.1,236.1,303.1z"/>
	<text transform="matrix(1 0 0 1 20.4984 253.703)" class="st0 st22 st17">실행전략_3</text>
	<text transform="matrix(1 0 0 1 20.7782 271.7878)" class="st20 st23 st17">자유롭게 의견을 제시할 수 있는 문화를 조성합니다</text>
	<text transform="matrix(1 0 0 1 30.0845 285.0599)" class="st24 st25 st17">자유롭게 신고・제안할 수 있는 절차와 분위기를 만듭니다.</text>
	<path class="st20" d="M24.2,280.1c0,0-0.6,2.7-3.1,2.7c0,0,2.5,0,3.1,2.3c0,0,0.5-2.3,2.8-2.5C27,282.6,24.4,282.2,24.2,280.1z"/>
	<text transform="matrix(1 0 0 1 30.0845 296.8628)" class="st24 st25 st17">안전보건관리체계 구축・이행의 모든 과정에 참여할 수 있는 절차를 검토합니다.  </text>
	<path class="st20" d="M24.2,291.9c0,0-0.6,2.7-3.1,2.7c0,0,2.5,0,3.1,2.3c0,0,0.5-2.3,2.8-2.5C27,294.4,24.4,294,24.2,291.9z"/>
</g>
</svg>
